# xmcd CD database file
#
# Track frame offsets:
#	150
#	3675
#	20475
#	37425
#	60750
#	84750
#	103350
#	124050
#	145950
#	160875
#	184575
#	201000
#	223875
#	245025
#	268800
#
# Disc length: 3940 seconds
#
# Revision: 1
# Processed by: cddbd v1.5.1PL2 Copyright (c) Steve Scherf et al.
# Submitted via: freeDBTagger 0.5
#
DISCID=dd0f620f
DTITLE=YOSHIKA - timeless
DYEAR=1900
DGENRE=blues
TTITLE0=intro
TTITLE1=happiness
TTITLE2=Call Me
TTITLE3=nothing
TTITLE4=Sunshine [feat. VERBAL]
TTITLE5=STAY
TTITLE6=you and me
TTITLE7=Just Us
TTITLE8=one day [feat. B-BANDJ]
TTITLE9=human
TTITLE10=Ooh Child
TTITLE11=Come back to you
TTITLE12=alive [feat. WISE]
TTITLE13=can't control
TTITLE14=let go [acoustic version]／YOSHIKA love m-flo
EXTD=Streamripper!
EXTT0=
EXTT1=
EXTT2=
EXTT3=
EXTT4=
EXTT5=
EXTT6=
EXTT7=
EXTT8=
EXTT9=
EXTT10=
EXTT11=
EXTT12=
EXTT13=
EXTT14=
PLAYORDER=
